# xmcd
#
# Track frame offsets:
#	150
#	29845
#	58220
#	95015
#	113833
#	156694
#	203646
#	246340
#	281468
#
# Disc length: 4172 seconds
#
# Revision: 1
# Processed by: cddbd v1.5.1PL2 Copyright (c) Steve Scherf et al.
# Submitted via: audiograbber 1.83.01
#
DISCID=8a104a09
DTITLE=Joe Houston and the Defrosterz - Joe Houston and the Defrosterz
DYEAR=1999
DGENRE=Blues
TTITLE0=Everyday I Have the Blues
TTITLE1=You Know I Love You
TTITLE2=Rusty Dusty Blues
TTITLE3=T. V. Mama
TTITLE4=Almost Lost My Life
TTITLE5=Going to Chicago
TTITLE6=Baby What You Want Me To Do
TTITLE7=Old Maid Boogie
TTITLE8=Bad Bad Whiskey
EXTD=
EXTT0=
EXTT1=
EXTT2=
EXTT3=
EXTT4=
EXTT5=
EXTT6=
EXTT7=
EXTT8=
PLAYORDER=
